<svg width="24" height="24" viewBox="0 0 24 24" fill="none" xmlns="http://www.w3.org/2000/svg">
<path d="M8.83603 15.14C6.65372 12.9688 5 10.3452 5 8.18148C5 7.22402 5.3247 6.35703 6.05717 5.6559C6.5027 5.22617 7.01618 5 7.51456 5C7.92233 5 8.29989 5.15832 8.55663 5.52019L10.1802 7.80452C10.4369 8.15886 10.5577 8.45288 10.5577 8.72429C10.5577 9.07108 10.3538 9.37264 10.0216 9.71944L9.48544 10.2698C9.40237 10.3527 9.37217 10.4507 9.37217 10.5487C9.37217 10.6618 9.41748 10.7674 9.45523 10.8503C9.69687 11.3177 10.384 12.1169 11.1241 12.8557C11.8716 13.5945 12.6721 14.2806 13.1402 14.5293C13.2157 14.567 13.329 14.6123 13.4423 14.6123C13.5405 14.6123 13.6462 14.5746 13.7292 14.4917L14.2654 13.9639C14.6127 13.6247 14.9223 13.4286 15.2621 13.4286C15.534 13.4286 15.836 13.5493 16.1834 13.7905L18.5016 15.434C18.8565 15.6904 19 16.0522 19 16.4292C19 16.9418 18.7508 17.462 18.3506 17.9068C17.6634 18.6607 16.8101 19 15.836 19C13.6688 19 11.0183 17.3188 8.83603 15.14Z" fill="black"/>
</svg>
