<svg width="14" height="14" viewBox="0 0 14 14" fill="none" xmlns="http://www.w3.org/2000/svg">
<path fill-rule="evenodd" clip-rule="evenodd" d="M6.98698 1.50047C6.56896 1.49293 6.15355 1.56788 5.76454 1.72106C5.37552 1.87424 5.02053 2.10262 4.71988 2.39315C4.41923 2.68368 4.17882 3.03064 4.01241 3.41418C3.84601 3.79773 3.75687 4.21032 3.7501 4.62836V9.00019C3.7501 9.2654 3.64475 9.51974 3.45722 9.70727C3.26969 9.8948 3.01535 10.0002 2.75014 10.0002H1.50019C1.10238 10.0002 0.720861 9.84212 0.439567 9.56083C0.158273 9.27953 0.000244141 8.89802 0.000244141 8.50021L0.000244141 6.50028C0.000244141 6.10247 0.158273 5.72096 0.439567 5.43966C0.720861 5.15837 1.10238 5.00034 1.50019 5.00034H2.25016V4.61036C2.25928 3.99577 2.38938 3.38901 2.63304 2.82471C2.87669 2.26041 3.22912 1.74964 3.67019 1.32157C4.11127 0.893493 4.63235 0.556499 5.20368 0.329833C5.77501 0.103168 6.3854 -0.00872992 6.99998 0.000531294C7.61456 -0.00872992 8.22494 0.103168 8.79628 0.329833C9.36761 0.556499 9.88869 0.893493 10.3298 1.32157C10.7708 1.74964 11.1233 2.26041 11.3669 2.82471C11.6106 3.38901 11.7407 3.99577 11.7498 4.61036V5.00034H12.4998C12.8976 5.00034 13.2791 5.15837 13.5604 5.43966C13.8417 5.72096 13.9997 6.10247 13.9997 6.50028V8.50021C13.9997 8.89802 13.8417 9.27953 13.5604 9.56083C13.2791 9.84212 12.8976 10.0002 12.4998 10.0002H11.7498V10.5001C11.7499 11.1759 11.5012 11.828 11.0512 12.3321C10.6012 12.8361 9.98132 13.1569 9.30989 13.233C9.1795 13.4658 8.98937 13.6596 8.7591 13.7945C8.52883 13.9293 8.26677 14.0002 7.99994 14H6.5C6.10219 14 5.72067 13.842 5.43938 13.5607C5.15808 13.2794 5.00005 12.8979 5.00005 12.5001C5.00005 12.1022 5.15808 11.7207 5.43938 11.4394C5.72067 11.1581 6.10219 11.0001 6.5 11.0001H7.99994C8.54192 11.0001 9.0169 11.2871 9.27989 11.7181C9.55551 11.6547 9.80149 11.4998 9.97767 11.2786C10.1538 11.0574 10.2498 10.7829 10.2499 10.5001V4.62736C10.243 4.20717 10.1529 3.79251 9.98483 3.40735C9.81674 3.02219 9.57397 2.67417 9.27056 2.38341C8.96715 2.09264 8.60911 1.8649 8.21715 1.71335C7.82519 1.5618 7.40707 1.48945 6.98698 1.50047Z" fill="black"/>
</svg>
